<?xml version="1.0" encoding="UTF-8" standalone="no"?>
<!-- Created with Inkscape (http://www.inkscape.org/) -->

<svg
   xmlns:dc="http://purl.org/dc/elements/1.1/"
   xmlns:cc="http://creativecommons.org/ns#"
   xmlns:rdf="http://www.w3.org/1999/02/22-rdf-syntax-ns#"
   xmlns:svg="http://www.w3.org/2000/svg"
   xmlns="http://www.w3.org/2000/svg"
   xmlns:sodipodi="http://sodipodi.sourceforge.net/DTD/sodipodi-0.dtd"
   xmlns:inkscape="http://www.inkscape.org/namespaces/inkscape"
   id="svg2816"
   version="1.1"
   inkscape:version="0.48.0 r9654"
   width="200"
   height="166"
   sodipodi:docname="Tamil-alphabet-த்த்.svg">
  <metadata
     id="metadata2822">
    <rdf:RDF>
      <cc:Work
         rdf:about="">
        <dc:format>image/svg+xml</dc:format>
        <dc:type
           rdf:resource="http://purl.org/dc/dcmitype/StillImage" />
        <dc:title />
      </cc:Work>
    </rdf:RDF>
  </metadata>
  <defs
     id="defs2820">
    <inkscape:perspective
       sodipodi:type="inkscape:persp3d"
       inkscape:vp_x="0 : 0.5 : 1"
       inkscape:vp_y="0 : 1000 : 0"
       inkscape:vp_z="1 : 0.5 : 1"
       inkscape:persp3d-origin="0.5 : 0.33333333 : 1"
       id="perspective2824" />
  </defs>
  <sodipodi:namedview
     pagecolor="#ffffff"
     bordercolor="#666666"
     borderopacity="1"
     objecttolerance="10"
     gridtolerance="10"
     guidetolerance="10"
     inkscape:pageopacity="0"
     inkscape:pageshadow="2"
     inkscape:window-width="640"
     inkscape:window-height="481"
     id="namedview2818"
     showgrid="false"
     inkscape:zoom="1.4216867"
     inkscape:cx="100"
     inkscape:cy="83"
     inkscape:window-x="265"
     inkscape:window-y="211"
     inkscape:window-maximized="0"
     inkscape:current-layer="svg2816" />
  <path
     style="fill:#000000"
     d="M 51.118786,159.62732 C 48.826876,158.70517 46.889826,153.49216 46.889826,148.24627 C 46.889826,143.76417 47.313366,142.67308 50.157046,139.8294 C 54.978956,135.00748 60.076766,134.29661 89.833716,134.29661 C 112.92246,134.29661 116.37534,134.08158 122.20621,132.28061 C 134.30418,128.54393 141.40635,117.40058 141.31639,102.29661 C 141.26119,93.032063 138.74164,87.551593 132.69687,83.547725 C 129.00531,81.102554 127.4506,80.758387 118.71662,80.452903 L 108.88983,80.109195 L 108.88983,88.887303 C 108.88983,102.23576 106.75322,108.55626 99.949086,115.33571 C 93.270796,121.98978 89.536716,123.29661 77.201946,123.29661 C 62.491086,123.29661 53.930146,118.87409 49.270596,108.86747 C 46.249856,102.38028 46.026636,91.793833 48.782646,85.725869 C 50.849906,81.174342 56.715446,75.858228 61.639826,74.07303 L 64.889826,72.894833 L 64.889826,56.095722 L 64.889826,39.29661 L 101.88983,39.29661 L 138.88983,39.29661 L 138.88983,43.29661 L 138.88983,47.29661 L 123.88983,47.29661 L 108.88983,47.29661 L 108.88983,60.29661 L 108.88983,73.29661 L 121.13983,73.30221 C 127.87733,73.30531 135.06596,73.773291 137.11457,74.34224 C 143.0899,76.001735 149.03646,81.232205 152.37944,87.768883 C 155.08309,93.055453 155.38687,94.579453 155.36075,102.72592 C 155.30045,121.52542 147.78044,131.68494 128.46108,139.06717 C 125.29118,140.27844 118.08013,140.7624 95.889826,141.25314 C 64.509076,141.94714 62.168696,142.3702 63.350776,147.13515 C 65.040046,153.94461 65.057656,155.39155 63.480556,157.79851 C 62.100956,159.90404 61.100866,160.28422 57.116776,160.21768 C 54.516956,160.17428 51.817866,159.90861 51.118786,159.62734 z M 82.202216,114.08487 C 87.690956,112.44041 92.332566,107.5668 93.742376,101.96791 C 94.373476,99.461593 94.889826,93.560243 94.889826,88.853793 L 94.889826,80.29661 L 81.639826,80.31857 C 70.901926,80.33637 67.631466,80.690542 64.389826,82.186651 C 59.027906,84.66134 56.254456,87.884091 54.828746,93.296611 C 52.723126,101.29039 57.082406,110.72869 64.340256,113.89001 C 68.192586,115.56798 76.933756,115.66334 82.202216,114.08487 z M 94.889826,60.29661 L 94.889826,47.29661 L 83.389826,47.29661 L 71.889826,47.29661 L 71.889826,60.29661 L 71.889826,73.29661 L 83.389826,73.29661 L 94.889826,73.29661 z"
     id="path2829"
     inkscape:connector-curvature="0"
     sodipodi:nodetypes="cssssssscsssssscccccccccccsssssssssccssscsssssccccccccc" />
  <g
     inkscape:groupmode="layer"
     id="layer1"
     inkscape:label="Layer" />
</svg>
